<?xml version="1.0" encoding="utf-8"?>
<svg version="1.1" xmlns="http://www.w3.org/2000/svg" xmlns:xlink="http://www.w3.org/1999/xlink" x="0px" y="0px" viewBox="694 -94 2000 980">
<path style="fill:#32322A" d="M1664.9,187.8c-7.6,0.9-13.1,8-12,15.8c0.7,5.6,4.8,10.2,10.2,11.7
	c0,0,34.2,11.3,92.3,15.9c46.8,3.8,99.7-3.3,99.7-3.3c7.7-0.3,13.9-6.7,13.6-14.4c-0.3-7.7-6.7-13.9-14.4-13.6
	c-0.9,0-1.8,0.1-2.7,0.4c0,0-51.8,6.4-93.9,3c-55.5-4.5-85.7-14.7-85.7-14.7C1669.5,187.8,1667.2,187.6,1664.9,187.8z M1664.9,118.3
	c-7.6,0.9-13.1,8-12,15.8c0.7,5.6,4.8,10.2,10.2,11.7c0,0,34.2,11.3,92.3,15.9c46.8,3.8,99.7-3.3,99.7-3.3
	c7.7-0.3,13.9-6.7,13.6-14.4c-0.3-7.7-6.7-13.9-14.4-13.6c-0.9,0-1.8,0.1-2.7,0.4c0,0-51.8,6.4-93.9,3
	c-55.5-4.5-85.7-14.7-85.7-14.7C1669.5,118.3,1667.2,118,1664.9,118.3z M1664.9,48.7c-7.6,0.9-13.1,8-12,15.8
	c0.7,5.6,4.8,10.2,10.2,11.7c0,0,34.2,11.3,92.3,15.9c46.8,3.8,99.7-3.3,99.7-3.3c7.7-0.3,13.9-6.7,13.6-14.4s-6.7-13.9-14.4-13.6
	c-0.9,0-1.8,0.1-2.7,0.4c0,0-51.8,6.4-93.9,3c-55.5-4.5-85.7-14.7-85.7-14.7C1669.5,48.7,1667.2,48.5,1664.9,48.7z M1664.9-20.8
	c-7.6,0.9-13.1,8-12,15.8c0.7,5.6,4.8,10.2,10.2,11.7c0,0,34.2,11.3,92.3,15.9c46.8,3.8,99.7-3.3,99.7-3.3
	c7.7-0.3,13.9-6.7,13.6-14.4s-6.7-13.9-14.4-13.6c-0.9,0-1.8,0.1-2.7,0.4c0,0-51.8,6.4-93.9,3c-55.5-4.5-85.7-14.7-85.7-14.7
	C1669.5-20.8,1667.2-21.1,1664.9-20.8z M1567.5-94c-73.1,0.6-100.2,23-100.2,23v545.5c0,0,26.6-22.9,112.1-19.5
	c85.6,3.6,103.2,33.5,208.4,35.6s131.6-16.2,131.6-16.2l1.5-556.2c0,0-47.3,13.4-139.3,14.2c-92,0.8-114.2-23.5-198.8-26.3
	C1577.3-94,1572.3-94,1567.5-94z M1628.6-58.4c0,0,44.3,14.6,126,18.7c69.1,3.4,138.4-6.8,138.4-6.8v494.3c0,0-35.1,18.4-122.7,12.2
	c-67.9-4.9-142.8-30.6-142.8-30.6L1628.6-58.4z M1586-45.6c7.7,0,14.2,6.3,14.2,14.2c0,7.7-6.3,14.2-14.2,14.2
	c0,0-22.9,0.1-36.8,1.5c-23.5,2.3-39.4,10.9-39.4,10.9c-7,3.7-15.4,0.9-19.1-5.9c-3.7-7-0.9-15.4,5.9-19.1l0,0
	c0,0,20.7-11,49.8-13.9C1563.1-45.4,1586-45.6,1586-45.6z M1572.3,24.2c7.7-0.1,13.6,0,13.6,0c7.7,0.9,13.2,7.9,12.3,15.7
	c-0.8,6.4-5.9,11.6-12.3,12.3c0,0-22.9,0.1-36.8,1.5c-23.5,2.3-39.4,10.9-39.4,10.9c-7,3.7-15.4,0.9-19.1-6
	c-3.7-7-0.9-15.4,5.9-19.1c0,0,20.7-11,49.8-13.9C1554.6,24.9,1564.6,24.4,1572.3,24.2z M1586,93.6c7.7,0,14.2,6.3,14.2,14.2
	c0,7.7-6.3,14.2-14.2,14.2c0,0-22.9-0.1-36.8,1.2c-23.5,2.3-39.4,10.9-39.4,10.9c-7,3.7-15.4,0.9-19.1-6c-3.7-7-0.9-15.4,6-19.1
	c0,0,20.7-11,49.8-13.9C1563.1,93.5,1586,93.6,1586,93.6z"/>
<g>
	<path style="fill:#32322A" d="M694,880.3v-29.4l12-1c7.1-0.7,10.5-4.2,10.5-10V672.1l-20.5-1v-30.6h98.6
		c27.9,0,49.4,5.2,64.3,15.4c14.9,10.3,22.3,27.4,22.3,50.9c0,16.4-4.4,29.8-12.9,40.4c-8.3,10.5-18.6,18.3-30.3,23
		c8.6,3.2,15.4,10.5,20.5,22l25.9,56.7l20.5,0.7v30.7h-89v-29.4l10.5-1c5.6-0.7,8.3-2.9,8.3-6.6c0-1.5-0.5-3.2-1.5-5.2l-16.9-36.2
		c-2.7-6.1-5.6-10.3-9-12.7c-3.2-2.7-7.6-3.9-13.7-3.9h-32.8v62.9l23.5,1v31L694,880.3 M760.3,751.6h31.3
		c29.6,0,44.3-13.2,44.3-39.6c0-15.2-3.9-24.9-12-29.6c-7.6-4.7-20.3-6.8-37.4-6.8H760v76.1"/>
	<path style="fill:#32322A" d="M997.5,693.4c18.1,0,32.3,4.4,43,13.4c10.5,8.6,15.9,21,15.9,36.7c0,10.5-2.2,20-6.8,28.1
		c-4.7,7.8-10.3,14.2-16.9,18.8c-6.8,4.7-14.9,8.3-24.4,11.3c-16.2,4.9-34.3,7.3-54.5,7.3c0.7,12.7,4.7,23,12,31
		c7.3,7.6,18.3,11.5,33.3,11.5c14.9,0,29.8-5.4,44.8-15.9l13.7,29.4c-4.9,4.4-12.9,8.8-24.4,13.4c-11.3,4.7-24.2,6.8-38.9,6.8
		c-29.4,0-50.9-8.1-64.6-24.2c-13.7-16.4-20.5-38.6-20.5-67c0-28.4,7.8-52.1,23.5-71.4C947.6,703.2,969.4,693.4,997.5,693.4
		 M980.9,776.1c8.8-1.7,17.1-5.2,24.4-10.5c7.3-5.6,11.3-12,11.3-19.6c0-14.7-7.3-22-21.8-22c-13.4,0-23.7,5.4-31,16.2
		c-7.3,10.5-11.3,23.2-12,38.1C962.8,778.3,972.3,777.6,980.9,776.1"/>
	<path style="fill:#32322A" d="M1229.4,706.2v134.3c0,3.9,0.5,6.6,1.7,7.8c1.5,1.5,3.9,2.2,7.3,2.4l11.5,0.7v28.9h-57.5v-21
		l-1-0.2c-12,17.4-28.6,25.9-49.4,25.9c-24.4,0-42.8-7.8-54.5-23.5s-17.6-36.9-17.6-64.3c0-32.8,7.8-58.2,23.7-76.6
		c15.9-18.4,39.6-27.4,71.4-27.4C1185.6,693.4,1206.8,697.6,1229.4,706.2 M1187.5,823.1v-93.4c-6.8-3.2-15.9-4.7-27.9-4.7
		c-16.2,0-27.9,6.6-35,19.6c-7.3,12.9-10.8,30.1-10.8,51.6c0,38.9,12.5,58.5,37.4,58.5c10.5,0,19.3-3.2,25.9-9.3
		C1184.1,838.4,1187.5,831.1,1187.5,823.1"/>
	<path style="fill:#32322A" d="M1345,693.4c10.3,0,20.3,1.5,29.6,4.4v-36.4c0-5.4-3.2-8.1-9.3-8.6l-15.4-1v-28.6h67v219.4
		c0.2,5.6,3.2,8.3,9,8.3l12.7,0.7v28.6h-58.5v-21.3l-1-0.2c-10.8,17.6-27.1,26.4-49.1,26.4c-27.4,0-46.7-9-57.7-27.4
		c-10-16.6-15.2-36.9-15.2-60.9c0-31.3,7.6-56.2,23-75.1C1295.6,703,1317.4,693.4,1345,693.4 M1374.6,824v-93.4
		c-8.6-3.9-17.9-5.9-27.4-5.9c-15.9,0-27.6,6.4-35,19.1c-7.3,12.7-10.8,29.1-10.8,48.7c0,40.4,12.9,60.6,38.9,60.6
		c9.8,0,18.1-2.7,24.4-8.3C1371.2,839.2,1374.6,832.3,1374.6,824"/>
	<path style="fill:#32322A" d="M1579.1,851.9c0,0-16.6,6.4-25.7,6.4c-9.1,0-12.2-4.4-12.2-15.9c0-5.2,0.7-11.7,1.9-19.8
		l13.7-84.4h43.5l3.7-23.7h-43.5l7.6-46l-31.3,6.4l-6.4,39.9l-31.5,3.2l-3.4,20.5h31.3l-13.9,87.6c-1.2,7.3-1.9,14.2-1.9,20.3
		c0,24.9,10.5,37.7,31.8,37.7c17.6,0,41.3-14.4,41.3-14.4L1579.1,851.9"/>
	<path style="fill:#32322A" d="M1677.1,637.2l-57.7,1.5l-2.9,17.4l26.4,6.4l-34.7,217.8h30.1l10.5-56.7
		c0,0,24.9-86.8,66-86.8c12.7,0,16.4,9,16.4,20.8c0,4.4-0.7,9-1.2,13.9l-18.1,108.8l57.7-3.2l2.9-17.4l-26.4-4.7l14.2-88.3
		c1-6.6,1.5-12.9,1.5-18.6c0-22.8-9-38.1-34.5-38.1c-47.9,0-73.1,60.9-74.6,64.3L1677.1,637.2"/>
	<path style="fill:#32322A" d="M1903.8,844.1c0,0-28.6,14.2-51.9,14.2c-23.7,0-34.7-10.5-34.7-32.8c0-4.2,0.2-8.8,1-13.7
		c65.3,0,110.8-24.7,110.8-60.9c0-24.9-20.3-41.1-52.1-41.1c-50.1,0-91.2,51.4-91.2,116.9c0,34.7,22,56.7,56.7,56.7
		c37.2,0,70.7-23.5,70.7-23.5L1903.8,844.1 M1821.2,789.8c8.3-33.3,31.3-56.2,54.3-56.2c16.2,0,23.7,6.6,23.7,20.5
		C1899.2,774.9,1866,789.8,1821.2,789.8"/>
	<path style="fill:#32322A" d="M1982.4,880.3v-29.4l12-1c7.1-0.7,10.5-4.2,10.5-10V672.1l-20.5-1v-30.6h98.8
		c35.5,0,62.9,9.3,82.7,28.1c20,18.8,29.8,46.5,29.8,83.4c0,22.8-2.9,42.8-9,59.9c-6.1,16.9-14.2,30.1-24.4,39.6
		c-20.8,19.3-46.5,28.9-77.3,28.9L1982.4,880.3 M2048.6,675.3v170.2h36.7c20.8,0,36.7-7.3,48.4-22.3c11.5-14.9,17.4-36.4,17.4-65.1
		c0-55.3-23.5-82.9-70.5-82.9L2048.6,675.3"/>
	<path style="fill:#32322A" d="M2297.8,854.1c26.2,0,39.4-21.3,39.4-63.6c0-21.5-2.9-37.7-9-48.7
		c-5.9-11-15.7-16.6-29.6-16.6c-13.7,0-23.7,5.4-30.3,15.9c-6.6,10.5-9.8,24.9-9.8,43.3c0,34,6.4,55.3,18.8,63.8
		C2282.7,852.1,2289.5,854.1,2297.8,854.1 M2214.7,789.5c0-17.9,2.7-33.3,7.8-46.2c5.4-13.2,12.5-23.2,21.3-30.3
		c17.1-12.9,35.9-19.6,56.7-19.6c14.4,0,26.7,2.4,36.4,7.3c10,4.7,17.9,10,23.5,16.2c5.9,6.1,10.5,14.9,14.4,26.7
		c4.2,11.5,6.1,25.2,6.1,41.1c0,33.3-8.1,58.5-24.2,75.3c-16.2,17.1-36.7,25.7-62.1,25.7c-24.9,0-44.5-8.1-58.7-24.2
		C2221.8,845.3,2214.7,821.1,2214.7,789.5"/>
	<path style="fill:#32322A" d="M2442.2,787.6c0,20.5,3.9,36.4,11.5,47.7s18.8,16.9,33.3,16.9c14.7,0,29.1-5.2,43.3-15.4
		l15.4,27.9c-17.1,13.9-38.4,21-64.3,21s-46-8.1-60.9-24.2c-14.7-16.4-22-40.4-22-72.1c0-31.7,8.3-55.5,25.2-71.4
		c17.1-16.2,36.2-24.2,57.5-24.2c21.5,0,41.3,4.9,59.4,14.7v47l-33.3,2.4v-17.4c0-6.6-2.4-10.5-7.3-12c-4.7-1.7-9.3-2.4-14.4-2.4
		C2456.6,725.9,2442.2,746.5,2442.2,787.6"/>
	<path style="fill:#32322A" d="M2648.5,726.2c-5.9-2.2-12.7-3.2-21-3.2s-14.7,1.9-19.8,5.9c-4.9,3.7-7.3,8.1-7.3,13.7
		c0,5.4,0.7,9.5,2.4,12.7c1.9,2.9,4.9,5.4,8.6,7.6c6.1,3.2,13.2,5.9,21.8,8.3c8.3,2.2,14.7,3.9,18.8,5.4c4.2,1.2,9,3.4,15.2,6.6
		c6.4,3.2,11,6.6,14.2,10c8.3,8.8,12.7,20.3,12.7,34.3c0,18.1-6.6,32.3-19.8,42.5c-12.9,10-29.6,15.2-49.9,15.2
		c-29.4,0-51.4-3.7-66.3-11.3v-50.1l32.5-2.4v17.4c0,10.5,10,15.9,30.3,15.9s30.3-7.3,30.3-22c0-5.4-1.7-9.5-5.4-12.9
		c-3.4-3.4-6.8-5.6-10-6.8c-3.4-1.2-7.3-2.4-12.2-3.7c-4.7-1.2-9-2.4-13.7-3.7c-4.4-1.2-9-2.7-14.4-4.7c-5.2-2.2-10.8-5.2-16.9-9
		c-12.2-7.8-18.3-21.3-18.3-39.6c0-18.8,6.6-33.3,19.8-43.3c13.2-10,29.8-15.2,49.9-15.2c20.3,0,40.1,4.9,59.9,14.4v43.3l-32.5,2.4
		v-15.2C2656.9,732.6,2654.2,728.4,2648.5,726.2"/>
</g>
</svg>
