<?xml version="1.0" encoding="UTF-8"?>
<svg id="svg5241" width="1580" height="920" version="1.1" viewBox="2537 -969.1 1580 920" xml:space="preserve" xmlns="http://www.w3.org/2000/svg">
<style id="style2" type="text/css">
	.st0{fill:#FAFAFA;}
</style>
<g id="g18" transform="translate(20 20)">
	<g id="g3857" transform="matrix(.84091 0 0 .84091 -2352.8 2076.4)">
		<path id="path3929-8" class="st0" d="m6169.3-3116.2c-13.7 1.7-23.5 14.4-21.5 28.4 1.2 10 8.6 18.3 18.3 21 0 0 61.4 20.3 165.6 28.6 83.9 6.8 178.8-5.9 178.8-5.9 13.9-0.5 24.9-12 24.4-25.9s-12-24.9-25.9-24.4c-1.7 0-3.2 0.2-4.9 0.7 0 0-92.9 11.5-168.5 5.4-99.5-8.1-153.8-26.4-153.8-26.4-4.2-1.5-8.4-2-12.5-1.5zm0-124.7c-13.7 1.7-23.5 14.4-21.5 28.4 1.2 10 8.6 18.3 18.3 21 0 0 61.4 20.3 165.6 28.6 83.9 6.8 178.8-5.9 178.8-5.9 13.9-0.5 24.9-12 24.4-25.9s-12-24.9-25.9-24.4c-1.7 0-3.2 0.2-4.9 0.7 0 0-92.9 11.5-168.5 5.4-99.5-8.1-153.8-26.4-153.8-26.4-4.2-1.5-8.4-2-12.5-1.5zm0-124.8c-13.7 1.7-23.5 14.4-21.5 28.4 1.2 10 8.6 18.3 18.3 21 0 0 61.4 20.3 165.6 28.6 83.9 6.8 178.8-5.9 178.8-5.9 13.9-0.5 24.9-12 24.4-25.9s-12-24.9-25.9-24.4c-1.7 0-3.2 0.2-4.9 0.7 0 0-92.9 11.5-168.5 5.4-99.5-8.1-153.8-26.4-153.8-26.4-4.2-1.5-8.4-2-12.5-1.5zm0-124.7c-13.7 1.7-23.5 14.4-21.5 28.4 1.2 10 8.6 18.3 18.3 21 0 0 61.4 20.3 165.6 28.6 83.9 6.8 178.8-5.9 178.8-5.9 13.9-0.5 24.9-12 24.4-25.9s-12-24.9-25.9-24.4c-1.7 0-3.2 0.2-4.9 0.7 0 0-92.9 11.5-168.5 5.4-99.5-8.1-153.8-26.4-153.8-26.4-4.2-1.5-8.4-2-12.5-1.5zm-174.7-131.3c-131.1 1-179.7 41.3-179.7 41.3v978.5s47.7-41.1 201-35c153.6 6.4 185.1 60.1 373.7 63.8s236-29.1 236-29.1l2.7-997.6s-84.9 24-249.9 25.4c-165.1 1.5-204.9-42.1-356.6-47.2-9.6-0.1-18.6-0.1-27.2-0.1zm109.6 63.8s79.5 26.2 226 33.5c124 6.1 248.2-12.2 248.2-12.2v886.5s-62.9 33-220.1 21.8c-121.8-8.8-256.1-54.8-256.1-54.8zm-76.5 23c13.9 0 25.4 11.3 25.4 25.4 0 13.9-11.3 25.4-25.4 25.4 0 0-41.1 0.2-66 2.7-42.1 4.2-70.7 19.6-70.7 19.6-12.5 6.6-27.6 1.7-34.3-10.5-6.6-12.5-1.7-27.6 10.5-34.3 0 0 37.2-19.8 89.3-24.9 30.1-3.1 71.2-3.4 71.2-3.4zm-24.5 125.2c13.9-0.2 24.4 0 24.4 0 13.9 1.7 23.7 14.2 22 28.1-1.5 11.5-10.5 20.8-22 22 0 0-41.1 0.2-66 2.7-42.1 4.2-70.7 19.6-70.7 19.6-12.5 6.6-27.6 1.7-34.3-10.8-6.6-12.5-1.7-27.6 10.5-34.3 0 0 37.2-19.8 89.3-24.9 15-1.2 32.9-2.1 46.8-2.4zm24.5 124.5c13.9 0 25.4 11.3 25.4 25.4 0 13.9-11.3 25.4-25.4 25.4 0 0-41.1-0.2-66 2.2-42.1 4.2-70.7 19.6-70.7 19.6-12.5 6.6-27.6 1.7-34.3-10.8-6.6-12.5-1.7-27.6 10.8-34.3 0 0 37.2-19.8 89.3-24.9 29.8-2.8 70.9-2.6 70.9-2.6z"/>
	</g>
	<g id="text5298_1_" transform="translate(236 8.5612)">
		
		
		
		<g id="g34"><path id="path3068_1_" class="st0" d="m3097-708.8v-29.4l12-1c7.1-0.7 10.5-4.2 10.5-10v-167.8l-20.5-1v-30.6h98.6c27.9 0 49.4 5.2 64.3 15.4 14.9 10.3 22.3 27.4 22.3 50.9 0 16.4-4.4 29.8-12.9 40.4-8.3 10.5-18.6 18.3-30.3 23 8.6 3.2 15.4 10.5 20.5 22l25.9 56.7 20.5 0.7v30.7h-89v-29.4l10.5-1c5.6-0.7 8.3-2.9 8.3-6.6 0-1.5-0.5-3.2-1.5-5.2l-16.9-36.2c-2.7-6.1-5.6-10.3-9-12.7-3.2-2.7-7.6-3.9-13.7-3.9h-32.8v62.9l23.5 1v31h-90.3m66.3-128.6h31.3c29.6 0 44.3-13.2 44.3-39.6 0-15.2-3.9-24.9-12-29.6-7.6-4.7-20.3-6.8-37.4-6.8h-26.5v76.1"/><path id="path3070_1_" class="st0" d="m3400.5-895.7c18.1 0 32.3 4.4 43 13.4 10.5 8.6 15.9 21 15.9 36.7 0 10.5-2.2 20-6.8 28.1-4.7 7.8-10.3 14.2-16.9 18.8-6.8 4.7-14.9 8.3-24.4 11.3-16.2 4.9-34.3 7.3-54.5 7.3 0.7 12.7 4.7 23 12 31 7.3 7.6 18.3 11.5 33.3 11.5 14.9 0 29.8-5.4 44.8-15.9l13.7 29.4c-4.9 4.4-12.9 8.8-24.4 13.4-11.3 4.7-24.2 6.8-38.9 6.8-29.4 0-50.9-8.1-64.6-24.2-13.7-16.4-20.5-38.6-20.5-67s7.8-52.1 23.5-71.4c14.9-19.4 36.7-29.2 64.8-29.2m-16.6 82.7c8.8-1.7 17.1-5.2 24.4-10.5 7.3-5.6 11.3-12 11.3-19.6 0-14.7-7.3-22-21.8-22-13.4 0-23.7 5.4-31 16.2-7.3 10.5-11.3 23.2-12 38.1 11 0 20.5-0.7 29.1-2.2"/><path id="path3072_1_" class="st0" d="m3632.4-882.9v134.3c0 3.9 0.5 6.6 1.7 7.8 1.5 1.5 3.9 2.2 7.3 2.4l11.5 0.7v28.9h-57.5v-21l-1-0.2c-12 17.4-28.6 25.9-49.4 25.9-24.4 0-42.8-7.8-54.5-23.5s-17.6-36.9-17.6-64.3c0-32.8 7.8-58.2 23.7-76.6s39.6-27.4 71.4-27.4c20.6 0.2 41.8 4.4 64.4 13m-41.9 116.9v-93.4c-6.8-3.2-15.9-4.7-27.9-4.7-16.2 0-27.9 6.6-35 19.6-7.3 12.9-10.8 30.1-10.8 51.6 0 38.9 12.5 58.5 37.4 58.5 10.5 0 19.3-3.2 25.9-9.3 7-7 10.4-14.3 10.4-22.3"/><path id="path3074_1_" class="st0" d="m3748-895.7c10.3 0 20.3 1.5 29.6 4.4v-36.4c0-5.4-3.2-8.1-9.3-8.6l-15.4-1v-28.6h67v219.4c0.2 5.6 3.2 8.3 9 8.3l12.7 0.7v28.6h-58.5v-21.3l-1-0.2c-10.8 17.6-27.1 26.4-49.1 26.4-27.4 0-46.7-9-57.7-27.4-10-16.6-15.2-36.9-15.2-60.9 0-31.3 7.6-56.2 23-75.1 15.5-18.7 37.3-28.3 64.9-28.3m29.6 130.6v-93.4c-8.6-3.9-17.9-5.9-27.4-5.9-15.9 0-27.6 6.4-35 19.1-7.3 12.7-10.8 29.1-10.8 48.7 0 40.4 12.9 60.6 38.9 60.6 9.8 0 18.1-2.7 24.4-8.3 6.5-5.6 9.9-12.5 9.9-20.8"/></g>
		
		
		<g id="g28" transform="translate(-1.5 26.2)"><path id="path3076_1_" class="st0" d="m3182.1-463.2s-16.6 6.4-25.7 6.4-12.2-4.4-12.2-15.9c0-5.2 0.7-11.7 1.9-19.8l13.7-84.4h43.5l3.7-23.7h-43.5l7.6-46-31.3 6.4-6.4 39.9-31.5 3.2-3.4 20.5h31.3l-13.9 87.6c-1.2 7.3-1.9 14.2-1.9 20.3 0 24.9 10.5 37.7 31.8 37.7 17.6 0 41.3-14.4 41.3-14.4l-5-17.8"/><path id="path3078_1_" class="st0" d="m3280.1-677.9-57.7 1.5-2.9 17.4 26.4 6.4-34.7 217.8h30.1l10.5-56.7s24.9-86.8 66-86.8c12.7 0 16.4 9 16.4 20.8 0 4.4-0.7 9-1.2 13.9l-18.1 108.8 57.7-3.2 2.9-17.4-26.4-4.7 14.2-88.3c1-6.6 1.5-12.9 1.5-18.6 0-22.8-9-38.1-34.5-38.1-47.9 0-73.1 60.9-74.6 64.3l24.4-137.1"/><path id="path3080_1_" class="st0" d="m3506.8-471s-28.6 14.2-51.9 14.2c-23.7 0-34.7-10.5-34.7-32.8 0-4.2 0.2-8.8 1-13.7 65.3 0 110.8-24.7 110.8-60.9 0-24.9-20.3-41.1-52.1-41.1-50.1 0-91.2 51.4-91.2 116.9 0 34.7 22 56.7 56.7 56.7 37.2 0 70.7-23.5 70.7-23.5l-9.3-15.8m-82.6-54.3c8.3-33.3 31.3-56.2 54.3-56.2 16.2 0 23.7 6.6 23.7 20.5 0 20.8-33.2 35.7-78 35.7"/></g>
		
		
		
		<g id="g40" transform="translate(-728.4 -118)"><path id="path3082_1_" class="st0" d="m3825.4 5.2v-29.4l12-1c7.1-0.7 10.5-4.2 10.5-10v-167.8l-20.5-1v-30.6h98.8c35.5 0 62.9 9.3 82.7 28.1 20 18.8 29.8 46.5 29.8 83.4 0 22.8-2.9 42.8-9 59.9-6.1 16.9-14.2 30.1-24.4 39.6-20.8 19.3-46.5 28.9-77.3 28.9l-102.6-0.1m66.2-205v170.2h36.7c20.8 0 36.7-7.3 48.4-22.3 11.5-14.9 17.4-36.4 17.4-65.1 0-55.3-23.5-82.9-70.5-82.9h-32"/><path id="path3084_1_" class="st0" d="m4140.8-21c26.2 0 39.4-21.3 39.4-63.6 0-21.5-2.9-37.7-9-48.7-5.9-11-15.7-16.6-29.6-16.6-13.7 0-23.7 5.4-30.3 15.9s-9.8 24.9-9.8 43.3c0 34 6.4 55.3 18.8 63.8 5.4 3.9 12.2 5.9 20.5 5.9m-83.1-64.6c0-17.9 2.7-33.3 7.8-46.2 5.4-13.2 12.5-23.2 21.3-30.3 17.1-12.9 35.9-19.6 56.7-19.6 14.4 0 26.7 2.4 36.4 7.3 10 4.7 17.9 10 23.5 16.2 5.9 6.1 10.5 14.9 14.4 26.7 4.2 11.5 6.1 25.2 6.1 41.1 0 33.3-8.1 58.5-24.2 75.3-16.2 17.1-36.7 25.7-62.1 25.7-24.9 0-44.5-8.1-58.7-24.2-14.1-16.2-21.2-40.4-21.2-72"/><path id="path3086_1_" class="st0" d="m4285.2-87.5c0 20.5 3.9 36.4 11.5 47.7s18.8 16.9 33.3 16.9c14.7 0 29.1-5.2 43.3-15.4l15.4 27.9c-17.1 13.9-38.4 21-64.3 21s-46-8.1-60.9-24.2c-14.7-16.4-22-40.4-22-72.1s8.3-55.5 25.2-71.4c17.1-16.2 36.2-24.2 57.5-24.2 21.5 0 41.3 4.9 59.4 14.7v47l-33.3 2.4v-17.4c0-6.6-2.4-10.5-7.3-12-4.7-1.7-9.3-2.4-14.4-2.4-29-0.2-43.4 20.4-43.4 61.5"/><path id="path3088_1_" class="st0" d="m4491.5-148.9c-5.9-2.2-12.7-3.2-21-3.2s-14.7 1.9-19.8 5.9c-4.9 3.7-7.3 8.1-7.3 13.7 0 5.4 0.7 9.5 2.4 12.7 1.9 2.9 4.9 5.4 8.6 7.6 6.1 3.2 13.2 5.9 21.8 8.3 8.3 2.2 14.7 3.9 18.8 5.4 4.2 1.2 9 3.4 15.2 6.6 6.4 3.2 11 6.6 14.2 10 8.3 8.8 12.7 20.3 12.7 34.3 0 18.1-6.6 32.3-19.8 42.5-12.9 10-29.6 15.2-49.9 15.2-29.4 0-51.4-3.7-66.3-11.3v-50.1l32.5-2.4v17.4c0 10.5 10 15.9 30.3 15.9s30.3-7.3 30.3-22c0-5.4-1.7-9.5-5.4-12.9-3.4-3.4-6.8-5.6-10-6.8-3.4-1.2-7.3-2.4-12.2-3.7-4.7-1.2-9-2.4-13.7-3.7-4.4-1.2-9-2.7-14.4-4.7-5.2-2.2-10.8-5.2-16.9-9-12.2-7.8-18.3-21.3-18.3-39.6 0-18.8 6.6-33.3 19.8-43.3s29.8-15.2 49.9-15.2c20.3 0 40.1 4.9 59.9 14.4v43.3l-32.5 2.4v-15.2c-0.5-6.1-3.2-10.3-8.9-12.5"/></g>
	</g>
</g>
</svg>
