<?xml version="1.0" encoding="utf-8"?>
<svg version="1.1" xmlns="http://www.w3.org/2000/svg" x="0px" y="0px" viewBox="2537 -969.1 1200 630" xml:space="preserve">
<g>
	<g transform="matrix(0.55753644,0,0,0.55753644,68.308135,1050.1262)">
		<path style="fill:#32322A" d="M5482.4-3211.6c-5.7,0.7-9.8,6-8.9,11.8
			c0.5,4.2,3.6,7.6,7.6,8.7c0,0,25.5,8.4,68.7,11.9c34.8,2.8,74.2-2.4,74.2-2.4c5.8-0.2,10.4-5,10.1-10.8c-0.2-5.8-5-10.4-10.8-10.1
			c-0.7,0-1.3,0.1-2,0.3c0,0-38.6,4.8-69.9,2.2c-41.3-3.4-63.8-11-63.8-11C5485.8-3211.6,5484.1-3211.8,5482.4-3211.6z
			 M5482.4-3263.3c-5.7,0.7-9.8,6-8.9,11.8c0.5,4.2,3.6,7.6,7.6,8.7c0,0,25.5,8.4,68.7,11.9c34.8,2.8,74.2-2.4,74.2-2.4
			c5.8-0.2,10.4-5,10.1-10.8c-0.2-5.8-5-10.4-10.8-10.1c-0.7,0-1.3,0.1-2,0.3c0,0-38.6,4.8-69.9,2.2c-41.3-3.4-63.8-11-63.8-11
			C5485.8-3263.3,5484.1-3263.5,5482.4-3263.3z M5482.4-3315.1c-5.7,0.7-9.8,6-8.9,11.8c0.5,4.2,3.6,7.6,7.6,8.7
			c0,0,25.5,8.4,68.7,11.9c34.8,2.8,74.2-2.4,74.2-2.4c5.8-0.2,10.4-5,10.1-10.8c-0.2-5.8-5-10.4-10.8-10.1c-0.7,0-1.3,0.1-2,0.3
			c0,0-38.6,4.8-69.9,2.2c-41.3-3.4-63.8-11-63.8-11C5485.8-3315.1,5484.1-3315.3,5482.4-3315.1z M5482.4-3366.8
			c-5.7,0.7-9.8,6-8.9,11.8c0.5,4.2,3.6,7.6,7.6,8.7c0,0,25.5,8.4,68.7,11.9c34.8,2.8,74.2-2.4,74.2-2.4c5.8-0.2,10.4-5,10.1-10.8
			c-0.2-5.8-5-10.4-10.8-10.1c-0.7,0-1.3,0.1-2,0.3c0,0-38.6,4.8-69.9,2.2c-41.3-3.4-63.8-11-63.8-11
			C5485.8-3366.8,5484.1-3367,5482.4-3366.8z M5409.9-3421.3c-54.4,0.4-74.6,17.2-74.6,17.2v406.1c0,0,19.8-17.1,83.4-14.5
			c63.7,2.6,76.8,25,155.1,26.5c78.3,1.5,97.9-12.1,97.9-12.1l1.1-414c0,0-35.2,9.9-103.7,10.6c-68.5,0.6-85-17.5-148-19.6
			C5417.2-3421.3,5413.4-3421.3,5409.9-3421.3z M5455.4-3394.9c0,0,33,10.9,93.8,13.9c51.5,2.5,103-5.1,103-5.1v367.9
			c0,0-26.1,13.7-91.3,9c-50.5-3.7-106.3-22.7-106.3-22.7L5455.4-3394.9z M5423.6-3385.3c5.8,0,10.6,4.7,10.6,10.6
			c0,5.8-4.7,10.6-10.6,10.6c0,0-17.1,0.1-27.4,1.1c-17.5,1.7-29.3,8.1-29.3,8.1c-5.2,2.7-11.5,0.7-14.2-4.4
			c-2.7-5.2-0.7-11.5,4.4-14.2l0,0c0,0,15.4-8.2,37-10.4C5406.5-3385.2,5423.6-3385.3,5423.6-3385.3z M5413.4-3333.4
			c5.8-0.1,10.1,0,10.1,0c5.8,0.7,9.8,5.9,9.1,11.7c-0.6,4.8-4.4,8.6-9.1,9.1c0,0-17.1,0.1-27.4,1.1c-17.5,1.7-29.3,8.1-29.3,8.1
			c-5.2,2.7-11.5,0.7-14.2-4.5c-2.7-5.2-0.7-11.5,4.4-14.2c0,0,15.4-8.2,37-10.4C5400.3-3332.8,5407.7-3333.3,5413.4-3333.4z
			 M5423.6-3281.7c5.8,0,10.6,4.7,10.6,10.6c0,5.8-4.7,10.6-10.6,10.6c0,0-17.1-0.1-27.4,0.9c-17.5,1.7-29.3,8.1-29.3,8.1
			c-5.2,2.7-11.5,0.7-14.2-4.5c-2.7-5.2-0.7-11.5,4.5-14.2c0,0,15.4-8.2,37-10.4C5406.5-3281.8,5423.6-3281.7,5423.6-3281.7z"/>
	</g>
	<g>
		<path style="fill:#32322A" d="M2722-453.1v-12.2l5-0.4c2.9-0.3,4.4-1.7,4.4-4.2v-69.6l-8.5-0.4v-12.7h40.9
			c11.6,0,20.5,2.1,26.7,6.4c6.2,4.3,9.2,11.4,9.2,21.1c0,6.8-1.8,12.4-5.4,16.7c-3.5,4.4-7.7,7.6-12.6,9.5c3.6,1.3,6.4,4.4,8.5,9.1
			l10.8,23.5l8.5,0.3v12.7h-37v-12.2l4.4-0.4c2.3-0.3,3.5-1.2,3.5-2.7c0-0.6-0.2-1.3-0.6-2.1l-7-15c-1.1-2.5-2.3-4.3-3.7-5.3
			c-1.3-1.1-3.1-1.6-5.7-1.6h-13.6v26.1l9.8,0.4v12.9H2722 M2749.5-506.5h13c12.3,0,18.4-5.5,18.4-16.4c0-6.3-1.6-10.4-5-12.3
			c-3.1-1.9-8.4-2.8-15.5-2.8h-11v31.6"/>
		<path style="fill:#32322A" d="M2848-530.6c7.5,0,13.4,1.8,17.9,5.6c4.4,3.6,6.6,8.7,6.6,15.2c0,4.4-0.9,8.3-2.8,11.7
			c-1.9,3.3-4.3,5.9-7,7.8c-2.8,1.9-6.2,3.5-10.1,4.7c-6.7,2-14.2,3-22.6,3c0.3,5.3,1.9,9.5,5,12.9c3,3.1,7.6,4.8,13.8,4.8
			c6.2,0,12.4-2.2,18.6-6.6l5.7,12.2c-2,1.8-5.4,3.7-10.1,5.6c-4.7,1.9-10,2.8-16.1,2.8c-12.2,0-21.1-3.4-26.8-10
			c-5.7-6.8-8.5-16-8.5-27.8s3.3-21.6,9.8-29.6C2827.3-526.5,2836.3-530.6,2848-530.6 M2841.1-496.3c3.7-0.7,7.1-2.1,10.1-4.4
			c3-2.3,4.7-5,4.7-8.1c0-6.1-3-9.1-9-9.1c-5.6,0-9.8,2.2-12.9,6.7c-3,4.4-4.7,9.6-5,15.8C2833.5-495.4,2837.5-495.7,2841.1-496.3"
			/>
		<path style="fill:#32322A" d="M2944.2-525.3v55.7c0,1.6,0.2,2.7,0.7,3.3c0.6,0.6,1.6,0.9,3,1l4.8,0.3v12h-23.8v-8.7
			l-0.4-0.1c-5,7.2-11.9,10.8-20.5,10.8c-10.1,0-17.8-3.3-22.6-9.8s-7.3-15.3-7.3-26.7c0-13.6,3.3-24.2,9.8-31.8
			c6.6-7.6,16.4-11.4,29.6-11.4C2926-530.6,2934.8-528.9,2944.2-525.3 M2926.8-476.8v-38.8c-2.8-1.3-6.6-1.9-11.6-1.9
			c-6.7,0-11.6,2.7-14.5,8.1c-3,5.4-4.5,12.5-4.5,21.4c0,16.1,5.2,24.3,15.5,24.3c4.4,0,8-1.3,10.8-3.9
			C2925.4-470.4,2926.8-473.5,2926.8-476.8"/>
		<path style="fill:#32322A" d="M2992.2-530.6c4.3,0,8.4,0.6,12.3,1.8v-15.1c0-2.2-1.3-3.4-3.9-3.6l-6.4-0.4v-11.9h27.8v91
			c0.1,2.3,1.3,3.5,3.7,3.5l5.3,0.3v11.9h-24.3v-8.8l-0.4-0.1c-4.5,7.3-11.3,11-20.4,11c-11.4,0-19.4-3.7-24-11.4
			c-4.2-6.9-6.3-15.3-6.3-25.3c0-13,3.1-23.3,9.5-31.2C2971.7-526.6,2980.7-530.6,2992.2-530.6 M3004.5-476.4v-38.8
			c-3.6-1.6-7.4-2.4-11.4-2.4c-6.6,0-11.5,2.6-14.5,7.9c-3,5.3-4.5,12.1-4.5,20.2c0,16.7,5.4,25.2,16.1,25.2c4.1,0,7.5-1.1,10.1-3.5
			C3003-470.1,3004.5-473,3004.5-476.4"/>
		<path style="fill:#32322A" d="M3089.3-464.8c0,0-6.9,2.6-10.7,2.6c-3.8,0-5.1-1.8-5.1-6.6c0-2.1,0.3-4.9,0.8-8.2l5.7-35
			h18.1l1.5-9.8h-18.1l3.1-19.1l-13,2.6l-2.6,16.5l-13.1,1.3l-1.4,8.5h13l-5.8,36.3c-0.5,3-0.8,5.9-0.8,8.4
			c0,10.4,4.4,15.6,13.2,15.6c7.3,0,17.2-6,17.2-6L3089.3-464.8"/>
		<path style="fill:#32322A" d="M3130-554l-24,0.6l-1.2,7.2l11,2.6l-14.4,90.4h12.5l4.4-23.5c0,0,10.4-36,27.4-36
			c5.3,0,6.8,3.7,6.8,8.6c0,1.8-0.3,3.7-0.5,5.8l-7.5,45.2l24-1.3l1.2-7.2l-11-1.9l5.9-36.6c0.4-2.7,0.6-5.4,0.6-7.7
			c0-9.4-3.7-15.8-14.3-15.8c-19.9,0-30.3,25.3-30.9,26.7L3130-554"/>
		<path style="fill:#32322A" d="M3224.1-468.1c0,0-11.9,5.9-21.5,5.9c-9.8,0-14.4-4.4-14.4-13.6c0-1.7,0.1-3.7,0.4-5.7
			c27.1,0,46-10.2,46-25.3c0-10.4-8.4-17.1-21.6-17.1c-20.8,0-37.9,21.3-37.9,48.5c0,14.4,9.1,23.5,23.5,23.5
			c15.4,0,29.3-9.8,29.3-9.8L3224.1-468.1 M3189.8-490.6c3.5-13.8,13-23.3,22.5-23.3c6.7,0,9.8,2.7,9.8,8.5
			C3222.2-496.8,3208.4-490.6,3189.8-490.6"/>
		<path style="fill:#32322A" d="M3256.7-453.1v-12.2l5-0.4c2.9-0.3,4.4-1.7,4.4-4.2v-69.6l-8.5-0.4v-12.7h41
			c14.7,0,26.1,3.9,34.3,11.7c8.3,7.8,12.4,19.3,12.4,34.6c0,9.4-1.2,17.8-3.7,24.9c-2.5,7-5.9,12.5-10.1,16.4
			c-8.6,8-19.3,12-32.1,12L3256.7-453.1 M3284.2-538.1v70.6h15.2c8.6,0,15.2-3,20.1-9.2c4.8-6.2,7.2-15.1,7.2-27
			c0-22.9-9.8-34.4-29.2-34.4H3284.2"/>
		<path style="fill:#32322A" d="M3387.6-463.9c10.9,0,16.3-8.8,16.3-26.4c0-8.9-1.2-15.6-3.7-20.2
			c-2.4-4.6-6.5-6.9-12.3-6.9c-5.7,0-9.8,2.2-12.6,6.6c-2.7,4.4-4.1,10.4-4.1,18c0,14.1,2.6,22.9,7.8,26.5
			C3381.3-464.7,3384.1-463.9,3387.6-463.9 M3353.1-490.7c0-7.4,1.1-13.8,3.3-19.2c2.2-5.5,5.2-9.6,8.8-12.6
			c7.1-5.4,14.9-8.1,23.5-8.1c6,0,11.1,1,15.1,3c4.2,1.9,7.4,4.2,9.8,6.7c2.4,2.5,4.4,6.2,6,11.1c1.7,4.8,2.5,10.5,2.5,17.1
			c0,13.8-3.4,24.3-10,31.3c-6.7,7.1-15.2,10.7-25.8,10.7c-10.4,0-18.5-3.4-24.4-10C3356-467.6,3353.1-477.6,3353.1-490.7"/>
		<path style="fill:#32322A" d="M3447.5-491.5c0,8.5,1.6,15.1,4.8,19.8s7.8,7,13.8,7c6.1,0,12.1-2.1,18-6.4l6.4,11.6
			c-7.1,5.8-15.9,8.7-26.7,8.7s-19.1-3.4-25.3-10c-6.1-6.8-9.1-16.7-9.1-29.9s3.5-23,10.5-29.6c7.1-6.7,15-10,23.8-10
			c8.9,0,17.2,2,24.7,6.1v19.5l-13.8,1v-7.2c0-2.7-1-4.4-3-5c-1.9-0.7-3.9-1-6-1C3453.5-517.1,3447.5-508.6,3447.5-491.5"/>
		<path style="fill:#32322A" d="M3533.1-517c-2.4-0.9-5.3-1.3-8.7-1.3c-3.5,0-6.1,0.8-8.2,2.4c-2,1.5-3,3.4-3,5.7
			c0,2.2,0.3,4,1,5.3c0.8,1.2,2,2.2,3.6,3.1c2.5,1.3,5.5,2.4,9,3.5c3.5,0.9,6.1,1.6,7.8,2.2c1.7,0.5,3.7,1.4,6.3,2.7
			c2.6,1.3,4.6,2.7,5.9,4.2c3.5,3.7,5.3,8.4,5.3,14.2c0,7.5-2.7,13.4-8.2,17.7c-5.4,4.2-12.3,6.3-20.7,6.3
			c-12.2,0-21.3-1.5-27.5-4.7v-20.8l13.5-1v7.2c0,4.4,4.2,6.6,12.6,6.6c8.4,0,12.6-3,12.6-9.1c0-2.2-0.7-4-2.2-5.4
			c-1.4-1.4-2.8-2.3-4.2-2.8c-1.4-0.5-3-1-5.1-1.5c-1.9-0.5-3.7-1-5.7-1.5c-1.8-0.5-3.7-1.1-6-1.9c-2.1-0.9-4.5-2.1-7-3.7
			c-5.1-3.3-7.6-8.8-7.6-16.4c0-7.8,2.7-13.8,8.2-18c5.5-4.2,12.4-6.3,20.7-6.3c8.4,0,16.6,2,24.9,6v18l-13.5,1v-6.3
			C3536.6-514.4,3535.5-516.1,3533.1-517"/>
	</g>
</g>
</svg>
