<?xml version="1.0" encoding="UTF-8"?>
<svg id="svg4006" width="720" height="720" version="1.1" viewBox="0 0 360 360" xmlns="http://www.w3.org/2000/svg" xmlns:cc="http://creativecommons.org/ns#" xmlns:dc="http://purl.org/dc/elements/1.1/" xmlns:rdf="http://www.w3.org/1999/02/22-rdf-syntax-ns#">
 <metadata id="metadata4011">
  <rdf:RDF>
   <cc:Work rdf:about="">
    <dc:format>image/svg+xml</dc:format>
    <dc:type rdf:resource="http://purl.org/dc/dcmitype/StillImage"/>
    <dc:title/>
   </cc:Work>
  </rdf:RDF>
 </metadata>
 <g id="layer1" transform="translate(-382.8 -267.99)">
  <g id="g3857" transform="matrix(4.7091 0 0 4.7091 863.84 638.13)" fill="#fafafa">
   <path id="path3929-8" d="m-67.281-41.594a1.6144 1.6144 0 0 0-0.21875 3.1562s3.9317 1.301 10.625 1.8438c5.3747 0.43579 11.469-0.375 11.469-0.375a1.6144 1.6144 0 1 0-0.40625-3.1875s-5.9616 0.73707-10.812 0.34375c-6.3882-0.51796-9.875-1.6875-9.875-1.6875a1.6144 1.6144 0 0 0-0.78125-0.09375zm0-8a1.6144 1.6144 0 0 0-0.21875 3.1562s3.9317 1.301 10.625 1.8438c5.3747 0.43579 11.469-0.375 11.469-0.375a1.6144 1.6144 0 1 0-0.40625-3.1875s-5.9616 0.73707-10.812 0.34375c-6.3882-0.51796-9.875-1.6875-9.875-1.6875a1.6144 1.6144 0 0 0-0.78125-0.09375zm0-8a1.6144 1.6144 0 0 0-0.21875 3.1562s3.9317 1.301 10.625 1.8438c5.3747 0.43579 11.469-0.375 11.469-0.375a1.6144 1.6144 0 1 0-0.40625-3.1875s-5.9616 0.73707-10.812 0.34375c-6.3882-0.51796-9.875-1.6875-9.875-1.6875a1.6144 1.6144 0 0 0-0.78125-0.09375zm0-8a1.6144 1.6144 0 0 0-0.21875 3.1562s3.9317 1.301 10.625 1.8438c5.3747 0.43579 11.469-0.375 11.469-0.375a1.6144 1.6144 0 1 0-0.40625-3.1875s-5.9616 0.73707-10.812 0.34375c-6.3882-0.51796-9.875-1.6875-9.875-1.6875a1.6144 1.6144 0 0 0-0.78125-0.09375zm-11.208-8.437c-8.4072 0.05606-11.539 2.6451-11.539 2.6451v62.784s3.0586-2.6415 12.906-2.2381 11.878 3.8553 23.98 4.0984 15.144-1.8603 15.144-1.8603l0.1744-64.005s-5.4461 1.5414-16.045 1.6277c-10.599 0.08634-13.146-2.6961-22.875-3.0229-0.60808-0.02042-1.1835-0.0328-1.744-0.02907zm7.0341 4.0984s5.0944 1.684 14.504 2.1509c7.953 0.39462 15.928-0.7848 15.928-0.7848v56.883s-4.0367 2.1159-14.126 1.3952c-7.8193-0.5585-16.423-3.5171-16.423-3.5171l0.11627-56.128zm-4.9122 1.4824a1.6277 1.6277 0 0 1 0 3.2555s-2.635 0.01353-4.2437 0.1744c-2.701 0.2701-4.5344 1.2499-4.5344 1.2499a1.6252 1.6252 0 1 1-1.5115-2.8776s2.3916-1.2652 5.7261-1.5987c1.9268-0.1927 4.5635-0.20347 4.5635-0.20347zm-1.5696 8.0224c0.89978-0.02279 1.5696 0 1.5696 0a1.625 1.625 0 0 1 0 3.2264s-2.635 0.01352-4.2437 0.1744c-2.701 0.2701-4.5344 1.2499-4.5344 1.2499a1.6252 1.6252 0 0 1-1.5115-2.8776s2.3916-1.2652 5.7261-1.5987c0.9634-0.09635 2.0941-0.15161 2.9939-0.1744zm1.5696 7.9933a1.6277 1.6277 0 0 1 0 3.2555s-2.635-0.01554-4.2437 0.14533c-2.701 0.2701-4.5344 1.2499-4.5344 1.2499a1.6252 1.6252 0 0 1-1.5115-2.8776s2.3916-1.2652 5.7261-1.5987c1.9268-0.1927 4.5635-0.1744 4.5635-0.1744z" color="#000000" fill="#fafafa" style="block-progression:tb;text-indent:0;text-transform:none"/>
  </g>
 </g>
</svg>
