<?xml version="1.0" encoding="utf-8"?>
<!-- Generator: Adobe Illustrator 19.0.0, SVG Export Plug-In . SVG Version: 6.00 Build 0)  -->
<svg version="1.1"
	 id="svg5241" inkscape:export-ydpi="90" inkscape:export-xdpi="90" sodipodi:docname="logo-wordmark-vertical-light.svg" inkscape:version="0.48.5 r10040" xmlns:dc="http://purl.org/dc/elements/1.1/" xmlns:cc="http://creativecommons.org/ns#" xmlns:rdf="http://www.w3.org/1999/02/22-rdf-syntax-ns#" xmlns:svg="http://www.w3.org/2000/svg" xmlns:inkscape="http://www.inkscape.org/namespaces/inkscape" xmlns:sodipodi="http://sodipodi.sourceforge.net/DTD/sodipodi-0.dtd"
	 xmlns="http://www.w3.org/2000/svg" xmlns:xlink="http://www.w3.org/1999/xlink" x="0px" y="0px" viewBox="2537 -969.1 2000 980"
	 style="enable-background:new 2537 -969.1 2000 980;" xml:space="preserve">
<style type="text/css">
	.st0{fill:#32322A;}
</style>
<g>
	<g id="g3857" transform="matrix(0.55753644,0,0,0.55753644,68.308135,1050.1262)">
		<path id="path3929-8" inkscape:connector-curvature="0" class="st0" d="M6169.3-3116.2c-13.7,1.7-23.5,14.4-21.5,28.4
			c1.2,10,8.6,18.3,18.3,21c0,0,61.4,20.3,165.6,28.6c83.9,6.8,178.8-5.9,178.8-5.9c13.9-0.5,24.9-12,24.4-25.9
			c-0.5-13.9-12-24.9-25.9-24.4c-1.7,0-3.2,0.2-4.9,0.7c0,0-92.9,11.5-168.5,5.4c-99.5-8.1-153.8-26.4-153.8-26.4
			C6177.6-3116.2,6173.4-3116.7,6169.3-3116.2z M6169.3-3240.9c-13.7,1.7-23.5,14.4-21.5,28.4c1.2,10,8.6,18.3,18.3,21
			c0,0,61.4,20.3,165.6,28.6c83.9,6.8,178.8-5.9,178.8-5.9c13.9-0.5,24.9-12,24.4-25.9s-12-24.9-25.9-24.4c-1.7,0-3.2,0.2-4.9,0.7
			c0,0-92.9,11.5-168.5,5.4c-99.5-8.1-153.8-26.4-153.8-26.4C6177.6-3240.9,6173.4-3241.4,6169.3-3240.9z M6169.3-3365.7
			c-13.7,1.7-23.5,14.4-21.5,28.4c1.2,10,8.6,18.3,18.3,21c0,0,61.4,20.3,165.6,28.6c83.9,6.8,178.8-5.9,178.8-5.9
			c13.9-0.5,24.9-12,24.4-25.9c-0.5-13.9-12-24.9-25.9-24.4c-1.7,0-3.2,0.2-4.9,0.7c0,0-92.9,11.5-168.5,5.4
			c-99.5-8.1-153.8-26.4-153.8-26.4C6177.6-3365.7,6173.4-3366.2,6169.3-3365.7z M6169.3-3490.4c-13.7,1.7-23.5,14.4-21.5,28.4
			c1.2,10,8.6,18.3,18.3,21c0,0,61.4,20.3,165.6,28.6c83.9,6.8,178.8-5.9,178.8-5.9c13.9-0.5,24.9-12,24.4-25.9
			c-0.5-13.9-12-24.9-25.9-24.4c-1.7,0-3.2,0.2-4.9,0.7c0,0-92.9,11.5-168.5,5.4c-99.5-8.1-153.8-26.4-153.8-26.4
			C6177.6-3490.4,6173.4-3490.9,6169.3-3490.4z M5994.6-3621.7c-131.1,1-179.7,41.3-179.7,41.3v978.5c0,0,47.7-41.1,201-35
			c153.6,6.4,185.1,60.1,373.7,63.8s236-29.1,236-29.1l2.7-997.6c0,0-84.9,24-249.9,25.4c-165.1,1.5-204.9-42.1-356.6-47.2
			C6012.2-3621.7,6003.2-3621.7,5994.6-3621.7z M6104.2-3557.9c0,0,79.5,26.2,226,33.5c124,6.1,248.2-12.2,248.2-12.2v886.5
			c0,0-62.9,33-220.1,21.8c-121.8-8.8-256.1-54.8-256.1-54.8L6104.2-3557.9z M6027.7-3534.9c13.9,0,25.4,11.3,25.4,25.4
			c0,13.9-11.3,25.4-25.4,25.4c0,0-41.1,0.2-66,2.7c-42.1,4.2-70.7,19.6-70.7,19.6c-12.5,6.6-27.6,1.7-34.3-10.5
			c-6.6-12.5-1.7-27.6,10.5-34.3l0,0c0,0,37.2-19.8,89.3-24.9C5986.6-3534.6,6027.7-3534.9,6027.7-3534.9z M6003.2-3409.7
			c13.9-0.2,24.4,0,24.4,0c13.9,1.7,23.7,14.2,22,28.1c-1.5,11.5-10.5,20.8-22,22c0,0-41.1,0.2-66,2.7
			c-42.1,4.2-70.7,19.6-70.7,19.6c-12.5,6.6-27.6,1.7-34.3-10.8c-6.6-12.5-1.7-27.6,10.5-34.3c0,0,37.2-19.8,89.3-24.9
			C5971.4-3408.5,5989.3-3409.4,6003.2-3409.7z M6027.7-3285.2c13.9,0,25.4,11.3,25.4,25.4c0,13.9-11.3,25.4-25.4,25.4
			c0,0-41.1-0.2-66,2.2c-42.1,4.2-70.7,19.6-70.7,19.6c-12.5,6.6-27.6,1.7-34.3-10.8c-6.6-12.5-1.7-27.6,10.8-34.3
			c0,0,37.2-19.8,89.3-24.9C5986.6-3285.4,6027.7-3285.2,6027.7-3285.2z"/>
	</g>
	<g id="text5298_1_">
		<path id="path3068_1_" class="st0" d="M2537,5.2v-29.4l12-1c7.1-0.7,10.5-4.2,10.5-10V-203l-20.5-1v-30.6h98.6
			c27.9,0,49.4,5.2,64.3,15.4c14.9,10.3,22.3,27.4,22.3,50.9c0,16.4-4.4,29.8-12.9,40.4c-8.3,10.5-18.6,18.3-30.3,23
			c8.6,3.2,15.4,10.5,20.5,22l25.9,56.7l20.5,0.7V5.2h-89v-29.4l10.5-1c5.6-0.7,8.3-2.9,8.3-6.6c0-1.5-0.5-3.2-1.5-5.2l-16.9-36.2
			c-2.7-6.1-5.6-10.3-9-12.7c-3.2-2.7-7.6-3.9-13.7-3.9h-32.8v62.9l23.5,1v31H2537 M2603.3-123.5h31.3c29.6,0,44.3-13.2,44.3-39.6
			c0-15.2-3.9-24.9-12-29.6c-7.6-4.7-20.3-6.8-37.4-6.8H2603v76.1"/>
		<path id="path3070_1_" class="st0" d="M2840.5-181.7c18.1,0,32.3,4.4,43,13.4c10.5,8.6,15.9,21,15.9,36.7c0,10.5-2.2,20-6.8,28.1
			c-4.7,7.8-10.3,14.2-16.9,18.8c-6.8,4.7-14.9,8.3-24.4,11.3c-16.2,4.9-34.3,7.3-54.5,7.3c0.7,12.7,4.7,23,12,31
			c7.3,7.6,18.3,11.5,33.3,11.5c14.9,0,29.8-5.4,44.8-15.9l13.7,29.4c-4.9,4.4-12.9,8.8-24.4,13.4c-11.3,4.7-24.2,6.8-38.9,6.8
			c-29.4,0-50.9-8.1-64.6-24.2c-13.7-16.4-20.5-38.6-20.5-67s7.8-52.1,23.5-71.4C2790.6-171.9,2812.4-181.7,2840.5-181.7 M2823.9-99
			c8.8-1.7,17.1-5.2,24.4-10.5c7.3-5.6,11.3-12,11.3-19.6c0-14.7-7.3-22-21.8-22c-13.4,0-23.7,5.4-31,16.2
			c-7.3,10.5-11.3,23.2-12,38.1C2805.8-96.8,2815.3-97.5,2823.9-99"/>
		<path id="path3072_1_" class="st0" d="M3072.4-168.9v134.3c0,3.9,0.5,6.6,1.7,7.8c1.5,1.5,3.9,2.2,7.3,2.4l11.5,0.7V5.2h-57.5v-21
			l-1-0.2c-12,17.4-28.6,25.9-49.4,25.9c-24.4,0-42.8-7.8-54.5-23.5c-11.7-15.7-17.6-36.9-17.6-64.3c0-32.8,7.8-58.2,23.7-76.6
			s39.6-27.4,71.4-27.4C3028.6-181.7,3049.8-177.5,3072.4-168.9 M3030.5-52v-93.4c-6.8-3.2-15.9-4.7-27.9-4.7
			c-16.2,0-27.9,6.6-35,19.6c-7.3,12.9-10.8,30.1-10.8,51.6c0,38.9,12.5,58.5,37.4,58.5c10.5,0,19.3-3.2,25.9-9.3
			C3027.1-36.7,3030.5-44,3030.5-52"/>
		<path id="path3074_1_" class="st0" d="M3188-181.7c10.3,0,20.3,1.5,29.6,4.4v-36.4c0-5.4-3.2-8.1-9.3-8.6l-15.4-1v-28.6h67v219.4
			c0.2,5.6,3.2,8.3,9,8.3l12.7,0.7V5.1h-58.5v-21.3l-1-0.2c-10.8,17.6-27.1,26.4-49.1,26.4c-27.4,0-46.7-9-57.7-27.4
			c-10-16.6-15.2-36.9-15.2-60.9c0-31.3,7.6-56.2,23-75.1C3138.6-172.1,3160.4-181.7,3188-181.7 M3217.6-51.1v-93.4
			c-8.6-3.9-17.9-5.9-27.4-5.9c-15.9,0-27.6,6.4-35,19.1c-7.3,12.7-10.8,29.1-10.8,48.7c0,40.4,12.9,60.6,38.9,60.6
			c9.8,0,18.1-2.7,24.4-8.3C3214.2-35.9,3217.6-42.8,3217.6-51.1"/>
		<path id="path3076_1_" class="st0" d="M3422.1-23.2c0,0-16.6,6.4-25.7,6.4c-9.1,0-12.2-4.4-12.2-15.9c0-5.2,0.7-11.7,1.9-19.8
			l13.7-84.4h43.5l3.7-23.7h-43.5l7.6-46l-31.3,6.4l-6.4,39.9l-31.5,3.2l-3.4,20.5h31.3l-13.9,87.6c-1.2,7.3-1.9,14.2-1.9,20.3
			c0,24.9,10.5,37.7,31.8,37.7c17.6,0,41.3-14.4,41.3-14.4L3422.1-23.2"/>
		<path id="path3078_1_" class="st0" d="M3520.1-237.9l-57.7,1.5l-2.9,17.4l26.4,6.4L3451.2,5.2h30.1l10.5-56.7
			c0,0,24.9-86.8,66-86.8c12.7,0,16.4,9,16.4,20.8c0,4.4-0.7,9-1.2,13.9L3554.9,5.2l57.7-3.2l2.9-17.4l-26.4-4.7l14.2-88.3
			c1-6.6,1.5-12.9,1.5-18.6c0-22.8-9-38.1-34.5-38.1c-47.9,0-73.1,60.9-74.6,64.3L3520.1-237.9"/>
		<path id="path3080_1_" class="st0" d="M3746.8-31c0,0-28.6,14.2-51.9,14.2c-23.7,0-34.7-10.5-34.7-32.8c0-4.2,0.2-8.8,1-13.7
			c65.3,0,110.8-24.7,110.8-60.9c0-24.9-20.3-41.1-52.1-41.1c-50.1,0-91.2,51.4-91.2,116.9c0,34.7,22,56.7,56.7,56.7
			c37.2,0,70.7-23.5,70.7-23.5L3746.8-31 M3664.2-85.3c8.3-33.3,31.3-56.2,54.3-56.2c16.2,0,23.7,6.6,23.7,20.5
			C3742.2-100.2,3709-85.3,3664.2-85.3"/>
		<path id="path3082_1_" class="st0" d="M3825.4,5.2v-29.4l12-1c7.1-0.7,10.5-4.2,10.5-10V-203l-20.5-1v-30.6h98.8
			c35.5,0,62.9,9.3,82.7,28.1c20,18.8,29.8,46.5,29.8,83.4c0,22.8-2.9,42.8-9,59.9c-6.1,16.9-14.2,30.1-24.4,39.6
			c-20.8,19.3-46.5,28.9-77.3,28.9L3825.4,5.2 M3891.6-199.8v170.2h36.7c20.8,0,36.7-7.3,48.4-22.3c11.5-14.9,17.4-36.4,17.4-65.1
			c0-55.3-23.5-82.9-70.5-82.9H3891.6"/>
		<path id="path3084_1_" class="st0" d="M4140.8-21c26.2,0,39.4-21.3,39.4-63.6c0-21.5-2.9-37.7-9-48.7c-5.9-11-15.7-16.6-29.6-16.6
			c-13.7,0-23.7,5.4-30.3,15.9c-6.6,10.5-9.8,24.9-9.8,43.3c0,34,6.4,55.3,18.8,63.8C4125.7-23,4132.5-21,4140.8-21 M4057.7-85.6
			c0-17.9,2.7-33.3,7.8-46.2c5.4-13.2,12.5-23.2,21.3-30.3c17.1-12.9,35.9-19.6,56.7-19.6c14.4,0,26.7,2.4,36.4,7.3
			c10,4.7,17.9,10,23.5,16.2c5.9,6.1,10.5,14.9,14.4,26.7c4.2,11.5,6.1,25.2,6.1,41.1c0,33.3-8.1,58.5-24.2,75.3
			c-16.2,17.1-36.7,25.7-62.1,25.7c-24.9,0-44.5-8.1-58.7-24.2C4064.8-29.8,4057.7-54,4057.7-85.6"/>
		<path id="path3086_1_" class="st0" d="M4285.2-87.5c0,20.5,3.9,36.4,11.5,47.7c7.6,11.3,18.8,16.9,33.3,16.9
			c14.7,0,29.1-5.2,43.3-15.4l15.4,27.9c-17.1,13.9-38.4,21-64.3,21s-46-8.1-60.9-24.2c-14.7-16.4-22-40.4-22-72.1
			s8.3-55.5,25.2-71.4c17.1-16.2,36.2-24.2,57.5-24.2c21.5,0,41.3,4.9,59.4,14.7v47l-33.3,2.4v-17.4c0-6.6-2.4-10.5-7.3-12
			c-4.7-1.7-9.3-2.4-14.4-2.4C4299.6-149.2,4285.2-128.6,4285.2-87.5"/>
		<path id="path3088_1_" class="st0" d="M4491.5-148.9c-5.9-2.2-12.7-3.2-21-3.2s-14.7,1.9-19.8,5.9c-4.9,3.7-7.3,8.1-7.3,13.7
			c0,5.4,0.7,9.5,2.4,12.7c1.9,2.9,4.9,5.4,8.6,7.6c6.1,3.2,13.2,5.9,21.8,8.3c8.3,2.2,14.7,3.9,18.8,5.4c4.2,1.2,9,3.4,15.2,6.6
			c6.4,3.2,11,6.6,14.2,10c8.3,8.8,12.7,20.3,12.7,34.3c0,18.1-6.6,32.3-19.8,42.5c-12.9,10-29.6,15.2-49.9,15.2
			c-29.4,0-51.4-3.7-66.3-11.3v-50.1l32.5-2.4v17.4c0,10.5,10,15.9,30.3,15.9s30.3-7.3,30.3-22c0-5.4-1.7-9.5-5.4-12.9
			c-3.4-3.4-6.8-5.6-10-6.8c-3.4-1.2-7.3-2.4-12.2-3.7c-4.7-1.2-9-2.4-13.7-3.7c-4.4-1.2-9-2.7-14.4-4.7c-5.2-2.2-10.8-5.2-16.9-9
			c-12.2-7.8-18.3-21.3-18.3-39.6c0-18.8,6.6-33.3,19.8-43.3c13.2-10,29.8-15.2,49.9-15.2c20.3,0,40.1,4.9,59.9,14.4v43.3l-32.5,2.4
			v-15.2C4499.9-142.5,4497.2-146.7,4491.5-148.9"/>
	</g>
</g>
</svg>
